# xmcd
#
# Track frame offsets: 
#        150
#        17404
#        38665
#        56425
#
# Disc length: 1124 seconds
#
# Revision: 0
# Processed by: cddbd v1.5.2PL0 Copyright (c) Steve Scherf et al.
# Submitted via: ExactAudioCopy v1.3
#
DISCID=22046204
DTITLE=The Rudy Boy Experiment - Duke City Nights
DYEAR=2017
DGENRE=Blues Rock
TTITLE0=Duke City Nights
TTITLE1=Shiftin' And Driftin'
TTITLE2=Love Light Shine
TTITLE3=Going Down Slow
EXTD=
EXTT0=
EXTT1=
EXTT2=
EXTT3=
PLAYORDER=
